{
	"asset":{
		"generator":"Khronos glTF Blender I/O v4.0.44",
		"version":"2.0"
	},
	"extensionsUsed":[
		"KHR_materials_clearcoat",
		"KHR_materials_specular",
		"KHR_materials_ior"
	],
	"scene":0,
	"scenes":[
		{
			"name":"Scene",
			"nodes":[
				0,
				1,
				2,
				3,
				4
			]
		}
	],
	"nodes":[
		{
			"mesh":0,
			"name":"tumbler1",
			"rotation":[
				0,
				-0.3856278657913208,
				0,
				0.9226544499397278
			]
		},
		{
			"mesh":1,
			"name":"table",
			"scale":[
				2,
				2,
				2
			],
			"translation":[
				0,
				-0.00019999999494757503,
				0
			]
		},
		{
			"mesh":2,
			"name":"tumbler2",
			"rotation":[
				0,
				-0.3856278657913208,
				0,
				0.9226544499397278
			],
			"translation":[
				0.07116024941205978,
				0,
				-0.07025822252035141
			]
		},
		{
			"mesh":3,
			"name":"tumbler3",
			"rotation":[
				0,
				-0.3856278657913208,
				0,
				0.9226544499397278
			],
			"translation":[
				0.14232049882411957,
				0,
				-0.14051644504070282
			]
		},
		{
			"mesh":4,
			"name":"tumbler4",
			"rotation":[
				0,
				-0.3856278657913208,
				0,
				0.9226544499397278
			],
			"translation":[
				0.21348074078559875,
				0,
				-0.21077467501163483
			]
		}
	],
	"materials":[
		{
			"alphaMode":"BLEND",
			"doubleSided":true,
			"extensions":{
				"KHR_materials_clearcoat":{
					"clearcoatFactor":0.3499999940395355,
					"clearcoatRoughnessFactor":0.5299999713897705
				}
			},
			"name":"glass_to_air",
			"pbrMetallicRoughness":{
				"baseColorFactor":[
					0.800000011920929,
					0.800000011920929,
					0.800000011920929,
					0.20454543828964233
				],
				"metallicFactor":0.9295454025268555
			}
		},
		{
			"doubleSided":true,
			"extensions":{
				"KHR_materials_specular":{
					"specularColorFactor":[
						1.567272663116455,
						1.567272663116455,
						1.567272663116455
					]
				},
				"KHR_materials_ior":{
					"ior":1.4500000476837158
				}
			},
			"name":"table_dark",
			"pbrMetallicRoughness":{
				"baseColorFactor":[
					0.004803352523595095,
					0.0044853538274765015,
					0.004580147564411163,
					1
				],
				"metallicFactor":0,
				"roughnessFactor":0.6227272748947144
			}
		}
	],
	"meshes":[
		{
			"name":"Cylinder.001",
			"primitives":[
				{
					"attributes":{
						"POSITION":0,
						"NORMAL":1,
						"TEXCOORD_0":2
					},
					"indices":3,
					"material":0
				}
			]
		},
		{
			"name":"Plane",
			"primitives":[
				{
					"attributes":{
						"POSITION":4,
						"NORMAL":5,
						"TEXCOORD_0":6
					},
					"indices":7,
					"material":1
				}
			]
		},
		{
			"name":"Cylinder.000",
			"primitives":[
				{
					"attributes":{
						"POSITION":8,
						"NORMAL":9,
						"TEXCOORD_0":10
					},
					"indices":11,
					"material":0
				}
			]
		},
		{
			"name":"Cylinder.002",
			"primitives":[
				{
					"attributes":{
						"POSITION":12,
						"NORMAL":13,
						"TEXCOORD_0":14
					},
					"indices":15,
					"material":0
				}
			]
		},
		{
			"name":"Cylinder.003",
			"primitives":[
				{
					"attributes":{
						"POSITION":16,
						"NORMAL":17,
						"TEXCOORD_0":18
					},
					"indices":19,
					"material":0
				}
			]
		}
	],
	"accessors":[
		{
			"bufferView":0,
			"componentType":5126,
			"count":3108,
			"max":[
				0.042893365025520325,
				0.10159999877214432,
				0.042893365025520325
			],
			"min":[
				-0.042893365025520325,
				0,
				-0.042893365025520325
			],
			"type":"VEC3"
		},
		{
			"bufferView":1,
			"componentType":5126,
			"count":3108,
			"type":"VEC3"
		},
		{
			"bufferView":2,
			"componentType":5126,
			"count":3108,
			"type":"VEC2"
		},
		{
			"bufferView":3,
			"componentType":5123,
			"count":14064,
			"type":"SCALAR"
		},
		{
			"bufferView":4,
			"componentType":5126,
			"count":81,
			"max":[
				1,
				0,
				1
			],
			"min":[
				-1,
				0,
				-1
			],
			"type":"VEC3"
		},
		{
			"bufferView":5,
			"componentType":5126,
			"count":81,
			"type":"VEC3"
		},
		{
			"bufferView":6,
			"componentType":5126,
			"count":81,
			"type":"VEC2"
		},
		{
			"bufferView":7,
			"componentType":5123,
			"count":384,
			"type":"SCALAR"
		},
		{
			"bufferView":8,
			"componentType":5126,
			"count":4146,
			"max":[
				0.042893365025520325,
				0.10160000622272491,
				0.04289337247610092
			],
			"min":[
				-0.042893365025520325,
				0,
				-0.04289337247610092
			],
			"type":"VEC3"
		},
		{
			"bufferView":9,
			"componentType":5126,
			"count":4146,
			"type":"VEC3"
		},
		{
			"bufferView":10,
			"componentType":5126,
			"count":4146,
			"type":"VEC2"
		},
		{
			"bufferView":11,
			"componentType":5123,
			"count":24864,
			"type":"SCALAR"
		},
		{
			"bufferView":12,
			"componentType":5126,
			"count":2826,
			"max":[
				0.042893365025520325,
				0.10160000622272491,
				0.04289337247610092
			],
			"min":[
				-0.042893365025520325,
				0,
				-0.04289337247610092
			],
			"type":"VEC3"
		},
		{
			"bufferView":13,
			"componentType":5126,
			"count":2826,
			"type":"VEC3"
		},
		{
			"bufferView":14,
			"componentType":5126,
			"count":2826,
			"type":"VEC2"
		},
		{
			"bufferView":15,
			"componentType":5123,
			"count":16944,
			"type":"SCALAR"
		},
		{
			"bufferView":16,
			"componentType":5126,
			"count":2472,
			"max":[
				0.042893365025520325,
				0.10160000622272491,
				0.042893365025520325
			],
			"min":[
				-0.042893365025520325,
				0,
				-0.042893365025520325
			],
			"type":"VEC3"
		},
		{
			"bufferView":17,
			"componentType":5126,
			"count":2472,
			"type":"VEC3"
		},
		{
			"bufferView":18,
			"componentType":5126,
			"count":2472,
			"type":"VEC2"
		},
		{
			"bufferView":19,
			"componentType":5123,
			"count":14820,
			"type":"SCALAR"
		}
	],
	"bufferViews":[
		{
			"buffer":0,
			"byteLength":37296,
			"byteOffset":0,
			"target":34962
		},
		{
			"buffer":0,
			"byteLength":37296,
			"byteOffset":37296,
			"target":34962
		},
		{
			"buffer":0,
			"byteLength":24864,
			"byteOffset":74592,
			"target":34962
		},
		{
			"buffer":0,
			"byteLength":28128,
			"byteOffset":99456,
			"target":34963
		},
		{
			"buffer":0,
			"byteLength":972,
			"byteOffset":127584,
			"target":34962
		},
		{
			"buffer":0,
			"byteLength":972,
			"byteOffset":128556,
			"target":34962
		},
		{
			"buffer":0,
			"byteLength":648,
			"byteOffset":129528,
			"target":34962
		},
		{
			"buffer":0,
			"byteLength":768,
			"byteOffset":130176,
			"target":34963
		},
		{
			"buffer":0,
			"byteLength":49752,
			"byteOffset":130944,
			"target":34962
		},
		{
			"buffer":0,
			"byteLength":49752,
			"byteOffset":180696,
			"target":34962
		},
		{
			"buffer":0,
			"byteLength":33168,
			"byteOffset":230448,
			"target":34962
		},
		{
			"buffer":0,
			"byteLength":49728,
			"byteOffset":263616,
			"target":34963
		},
		{
			"buffer":0,
			"byteLength":33912,
			"byteOffset":313344,
			"target":34962
		},
		{
			"buffer":0,
			"byteLength":33912,
			"byteOffset":347256,
			"target":34962
		},
		{
			"buffer":0,
			"byteLength":22608,
			"byteOffset":381168,
			"target":34962
		},
		{
			"buffer":0,
			"byteLength":33888,
			"byteOffset":403776,
			"target":34963
		},
		{
			"buffer":0,
			"byteLength":29664,
			"byteOffset":437664,
			"target":34962
		},
		{
			"buffer":0,
			"byteLength":29664,
			"byteOffset":467328,
			"target":34962
		},
		{
			"buffer":0,
			"byteLength":19776,
			"byteOffset":496992,
			"target":34962
		},
		{
			"buffer":0,
			"byteLength":29640,
			"byteOffset":516768,
			"target":34963
		}
	],
	"buffers":[
		{
			"byteLength":546408,
			"uri":"set-of-four-whiskey-glasses.bin"
		}
	]
}
